<?xml version="1.0" encoding="utf-8"?>
<!-- Generator: Adobe Illustrator 16.0.0, SVG Export Plug-In . SVG Version: 6.00 Build 0)  -->
<!DOCTYPE svg PUBLIC "-//W3C//DTD SVG 1.1//EN" "http://www.w3.org/Graphics/SVG/1.1/DTD/svg11.dtd">
<svg version="1.1" id="VR_Variante" xmlns="http://www.w3.org/2000/svg" xmlns:xlink="http://www.w3.org/1999/xlink" x="0px"
	 y="0px" width="154.079px" height="180.644px" viewBox="0 0 154.079 180.644" enable-background="new 0 0 154.079 180.644"
	 xml:space="preserve">
<g>
	<path fill="#F07E00" d="M13.166,167.187h1.858l-4.628,13.121H8.649l-4.423-13.121h1.858l3.476,10.965L13.166,167.187z
		 M29.407,173.619c0,3.939-2.305,7.025-6.653,7.025c-3.995,0-6.561-2.807-6.561-6.896c0-4.869,3.364-6.895,6.616-6.895
		C26.489,166.853,29.407,169.343,29.407,173.619z M27.512,173.636c-0.019-3.178-1.673-5.371-4.702-5.371
		c-3.309,0-4.721,2.547-4.721,5.502c0,2.75,1.357,5.5,4.739,5.5C26.359,179.267,27.53,176.332,27.512,173.636z M33.345,167.169
		h-1.746v13.139h8.103v-1.561h-6.356V167.169z M51.39,167.187h-2.156l-6.226,6.412v-6.412h-1.747v13.121h1.747v-4.572l1.858-1.877
		l4.628,6.449h2.118l-5.538-7.693L51.39,167.187z M54.771,174.324h6.393v-1.543h-6.393v-4.051h7.359v-1.543h-9.051v13.121h9.273
		v-1.523h-7.582V174.324z M71.365,174.621l3.68,5.688h-2.081l-3.568-5.574h-3.383v5.574h-1.71v-13.121h4.869
		c1.821,0.02,2.899,0.02,3.921,0.799c0.967,0.725,1.376,1.822,1.376,3.029C74.469,174.083,71.997,174.509,71.365,174.621z
		 M71.087,173.154c1.207-0.299,1.635-1.172,1.635-2.119c0-0.334-0.037-1.227-0.78-1.84c-0.688-0.576-1.543-0.559-2.546-0.559h-3.383
		v4.646h3.475C70.046,173.283,70.565,173.283,71.087,173.154z M88.795,174.621l3.68,5.688h-2.081l-3.568-5.574h-3.383v5.574h-1.709
		v-13.121h4.869c1.821,0.02,2.899,0.02,3.921,0.799c0.967,0.725,1.376,1.822,1.376,3.029
		C91.899,174.083,89.427,174.509,88.795,174.621z M88.517,173.154c1.208-0.299,1.636-1.172,1.636-2.119
		c0-0.334-0.037-1.227-0.781-1.84c-0.688-0.576-1.542-0.559-2.546-0.559h-3.383v4.646h3.476
		C87.476,173.283,87.996,173.283,88.517,173.154z M106.84,173.619c0,3.939-2.305,7.025-6.653,7.025
		c-3.996,0-6.561-2.807-6.561-6.896c0-4.869,3.363-6.895,6.616-6.895C103.922,166.853,106.84,169.343,106.84,173.619z
		 M104.944,173.636c-0.019-3.178-1.673-5.371-4.702-5.371c-3.309,0-4.721,2.547-4.721,5.502c0,2.75,1.356,5.5,4.739,5.5
		C103.792,179.267,104.963,176.332,104.944,173.636z M118.36,168.804c1.579,1.691,1.636,4.014,1.636,4.943
		c0,0.91-0.037,3.477-1.841,5.168c-1.523,1.393-3.308,1.393-4.423,1.393h-4.517v-13.121h4.107
		C115.182,167.187,116.836,167.187,118.36,168.804z M118.212,173.767c0-2.156-0.632-4.164-2.732-4.814
		c-0.725-0.223-1.487-0.223-2.416-0.223H111v10.072h2.323c1.152-0.018,2.026-0.037,2.899-0.537
		C117.097,177.781,118.212,176.591,118.212,173.767z M131.516,168.804c1.579,1.691,1.636,4.014,1.636,4.943
		c0,0.91-0.038,3.477-1.841,5.168c-1.523,1.393-3.308,1.393-4.423,1.393h-4.517v-13.121h4.107
		C128.337,167.187,129.991,167.187,131.516,168.804z M131.367,173.767c0-2.156-0.633-4.164-2.732-4.814
		c-0.725-0.223-1.487-0.223-2.416-0.223h-2.063v10.072h2.323c1.152-0.018,2.026-0.037,2.899-0.537
		C130.252,177.781,131.367,176.591,131.367,173.767z M137.219,178.785v-4.461h6.394v-1.543h-6.394v-4.051h7.36v-1.543h-9.052v13.121
		h9.274v-1.523H137.219z"/>
	<path fill="#F07E00" d="M128.899,59.907c3.179-20.468-9.789-29.494-28.73-29.494H62.925l-9.182,58.176L30.624,30.413H3.548
		l40.298,95.848h28.865l5.849-36.862h0.255l17.669,36.862h31.019l-23.899-39.28C117.586,84.566,126.738,73.128,128.899,59.907z
		 M102.712,61.43c-1.652,10.424-11.06,11.95-19.194,11.95h-2.415l3.812-23.897h2.416C95.468,49.482,104.363,51.008,102.712,61.43z
		 M132.28,131.261c-13.808,14.068-33.019,22.818-54.241,22.818c-21.473,0-40.88-8.961-54.72-23.32C8.96,116.919,0,97.512,0,76.04
		c0-9.965,1.946-19.479,5.447-28.208l2.649,6.302C5.872,61.038,4.657,68.396,4.657,76.04c0,39.424,31.958,71.382,71.382,71.382
		c17.168,0,32.916-6.063,45.229-16.161H132.28z M154.079,78.04c0,19.395-7.31,37.108-19.305,50.555l-4.062-6.678
		c10.423-12.406,16.709-28.404,16.709-45.877c0-39.423-31.957-71.383-71.382-71.383c-19.633,0-37.411,7.93-50.315,20.756h-6.357
		C33.3,9.831,53.539,0,76.039,0c21.472,0,40.879,8.96,54.72,23.321C145.119,37.161,154.079,56.568,154.079,78.04z"/>
</g>
</svg>
